<svg width="45" height="46" viewBox="0 0 45 46" fill="none" xmlns="http://www.w3.org/2000/svg">
<path d="M22.5 44.5C10.6259 44.5 1 34.874 1 23C1 11.1259 10.6259 1.5 22.5 1.5C34.374 1.5 44 11.1259 44 23C44 34.874 34.374 44.5 22.5 44.5Z" fill="#F4EF88" stroke="black" stroke-width="2" stroke-linecap="round" stroke-linejoin="round"/>
<path d="M32.1749 28.375C32.1749 28.375 28.9499 32.675 22.4999 32.675C16.0499 32.675 12.8249 28.375 12.8249 28.375" fill="#F4EF88"/>
<path d="M32.1749 28.375C32.1749 28.375 28.9499 32.675 22.4999 32.675C16.0499 32.675 12.8249 28.375 12.8249 28.375" stroke="black" stroke-width="2" stroke-linecap="round" stroke-linejoin="round"/>
<path d="M30.0249 16.5499C29.4312 16.5499 28.9499 16.0686 28.9499 15.4749C28.9499 14.8812 29.4312 14.3999 30.0249 14.3999C30.6185 14.3999 31.0999 14.8812 31.0999 15.4749C31.0999 16.0686 30.6185 16.5499 30.0249 16.5499Z" fill="#F4EF88" stroke="black" stroke-width="2" stroke-linecap="round" stroke-linejoin="round"/>
<path d="M14.9747 16.5499C14.381 16.5499 13.8997 16.0686 13.8997 15.4749C13.8997 14.8812 14.381 14.3999 14.9747 14.3999C15.5684 14.3999 16.0497 14.8812 16.0497 15.4749C16.0497 16.0686 15.5684 16.5499 14.9747 16.5499Z" fill="#F4EF88" stroke="black" stroke-width="2" stroke-linecap="round" stroke-linejoin="round"/>
</svg>
