<svg width="38" height="41" viewBox="0 0 38 41" fill="none" xmlns="http://www.w3.org/2000/svg">
<path d="M36 19.3752L19.9255 35.4497C17.9564 37.419 15.2855 38.5254 12.5006 38.5254C9.71565 38.5254 7.04479 37.419 5.07555 35.4497C3.1063 33.4805 2 30.8096 2 28.0247C2 25.2397 3.1063 22.569 5.07555 20.5996L21.1499 4.52521C22.4628 3.21239 24.2434 2.47485 26.1 2.47485C27.9567 2.47485 29.7373 3.21239 31.05 4.52521C32.3629 5.83805 33.1005 7.61863 33.1005 9.47523C33.1005 11.3319 32.3629 13.1124 31.05 14.4253L14.9581 30.4997C14.3017 31.1561 13.4114 31.5248 12.4831 31.5248C11.5548 31.5248 10.6645 31.1561 10.0081 30.4997C9.35167 29.8432 8.98289 28.9531 8.98289 28.0247C8.98289 27.0964 9.35167 26.2061 10.0081 25.5497L24.8581 10.7171" stroke="#757575" stroke-width="3" stroke-linecap="round" stroke-linejoin="round"/>
</svg>
