<svg width="46" height="46" viewBox="0 0 46 46" fill="none" xmlns="http://www.w3.org/2000/svg">
<path d="M23 2C11.402 2 2 11.402 2 23C2 34.5979 11.402 44 23 44C34.5979 44 44 34.5979 44 23C44 11.402 34.5979 2 23 2Z" stroke="url(#paint0_linear_126_590)" stroke-width="3" stroke-linecap="round" stroke-linejoin="round"/>
<path d="M6.7695 36.3258C6.7695 36.3258 11.4504 30.3499 23.0004 30.3499C34.5504 30.3499 39.2315 36.3258 39.2315 36.3258" stroke="url(#paint1_linear_126_590)" stroke-width="3" stroke-linecap="round" stroke-linejoin="round"/>
<path d="M22.9998 23.0001C26.4793 23.0001 29.2998 20.1796 29.2998 16.7001C29.2998 13.2208 26.4793 10.4001 22.9998 10.4001C19.5203 10.4001 16.6998 13.2208 16.6998 16.7001C16.6998 20.1796 19.5203 23.0001 22.9998 23.0001Z" stroke="url(#paint2_linear_126_590)" stroke-width="3" stroke-linecap="round" stroke-linejoin="round"/>
<defs>
<linearGradient id="paint0_linear_126_590" x1="23" y1="2" x2="23" y2="44" gradientUnits="userSpaceOnUse">
<stop stop-color="#B36ABE"/>
<stop offset="1" stop-color="#8F00FF"/>
</linearGradient>
<linearGradient id="paint1_linear_126_590" x1="23.0005" y1="30.3499" x2="23.0005" y2="36.3258" gradientUnits="userSpaceOnUse">
<stop stop-color="#B36ABE"/>
<stop offset="1" stop-color="#8F00FF"/>
</linearGradient>
<linearGradient id="paint2_linear_126_590" x1="22.9998" y1="10.4001" x2="22.9998" y2="23.0001" gradientUnits="userSpaceOnUse">
<stop stop-color="#B36ABE"/>
<stop offset="1" stop-color="#8F00FF"/>
</linearGradient>
</defs>
</svg>
