<svg width="46" height="46" viewBox="0 0 46 46" fill="none" xmlns="http://www.w3.org/2000/svg">
<path d="M22.8813 2C11.2834 2 1.88135 11.402 1.88135 23C1.88135 34.5979 11.2834 44 22.8813 44C34.4792 44 43.8813 34.5979 43.8813 23C43.8813 11.402 34.4792 2 22.8813 2Z" stroke="url(#paint0_linear_126_619)" stroke-width="3" stroke-linecap="round" stroke-linejoin="round"/>
<path d="M6.65085 36.3258C6.65085 36.3258 11.3318 30.3499 22.8818 30.3499C34.4318 30.3499 39.1129 36.3258 39.1129 36.3258" stroke="url(#paint1_linear_126_619)" stroke-width="3" stroke-linecap="round" stroke-linejoin="round"/>
<path d="M22.8812 23.0001C26.3607 23.0001 29.1812 20.1796 29.1812 16.7001C29.1812 13.2208 26.3607 10.4001 22.8812 10.4001C19.4017 10.4001 16.5812 13.2208 16.5812 16.7001C16.5812 20.1796 19.4017 23.0001 22.8812 23.0001Z" stroke="url(#paint2_linear_126_619)" stroke-width="3" stroke-linecap="round" stroke-linejoin="round"/>
<defs>
<linearGradient id="paint0_linear_126_619" x1="22.8813" y1="2" x2="22.8813" y2="44" gradientUnits="userSpaceOnUse">
<stop stop-color="#B36ABE"/>
<stop offset="1" stop-color="#8F00FF"/>
</linearGradient>
<linearGradient id="paint1_linear_126_619" x1="22.8819" y1="30.3499" x2="22.8819" y2="36.3258" gradientUnits="userSpaceOnUse">
<stop stop-color="#B36ABE"/>
<stop offset="1" stop-color="#8F00FF"/>
</linearGradient>
<linearGradient id="paint2_linear_126_619" x1="22.8812" y1="10.4001" x2="22.8812" y2="23.0001" gradientUnits="userSpaceOnUse">
<stop stop-color="#B36ABE"/>
<stop offset="1" stop-color="#8F00FF"/>
</linearGradient>
</defs>
</svg>
