<svg width="46" height="46" viewBox="0 0 46 46" fill="none" xmlns="http://www.w3.org/2000/svg">
<path d="M22.8306 2C11.2326 2 1.83057 11.402 1.83057 23C1.83057 34.5979 11.2326 44 22.8306 44C34.4284 44 43.8306 34.5979 43.8306 23C43.8306 11.402 34.4284 2 22.8306 2Z" stroke="url(#paint0_linear_126_190)" stroke-width="3" stroke-linecap="round" stroke-linejoin="round"/>
<path d="M6.6001 36.3258C6.6001 36.3258 11.281 30.3499 22.831 30.3499C34.381 30.3499 39.0621 36.3258 39.0621 36.3258" stroke="url(#paint1_linear_126_190)" stroke-width="3" stroke-linecap="round" stroke-linejoin="round"/>
<path d="M22.8303 23.0001C26.3098 23.0001 29.1303 20.1796 29.1303 16.7001C29.1303 13.2208 26.3098 10.4001 22.8303 10.4001C19.3508 10.4001 16.5303 13.2208 16.5303 16.7001C16.5303 20.1796 19.3508 23.0001 22.8303 23.0001Z" stroke="url(#paint2_linear_126_190)" stroke-width="3" stroke-linecap="round" stroke-linejoin="round"/>
<defs>
<linearGradient id="paint0_linear_126_190" x1="22.8306" y1="2" x2="22.8306" y2="44" gradientUnits="userSpaceOnUse">
<stop stop-color="#B36ABE"/>
<stop offset="1" stop-color="#8F00FF"/>
</linearGradient>
<linearGradient id="paint1_linear_126_190" x1="22.8311" y1="30.3499" x2="22.8311" y2="36.3258" gradientUnits="userSpaceOnUse">
<stop stop-color="#B36ABE"/>
<stop offset="1" stop-color="#8F00FF"/>
</linearGradient>
<linearGradient id="paint2_linear_126_190" x1="22.8303" y1="10.4001" x2="22.8303" y2="23.0001" gradientUnits="userSpaceOnUse">
<stop stop-color="#B36ABE"/>
<stop offset="1" stop-color="#8F00FF"/>
</linearGradient>
</defs>
</svg>
