<svg width="54" height="55" viewBox="0 0 54 55" fill="none" xmlns="http://www.w3.org/2000/svg">
<path d="M23.5148 3.90851C25.511 1.71669 28.9595 1.71669 30.9558 3.90851L33.5226 6.72708C34.5313 7.83482 35.9813 8.43541 37.4781 8.36546L41.2862 8.1875C44.2473 8.04909 46.6862 10.4877 46.5478 13.4491L46.3696 17.2571C46.2997 18.7538 46.9003 20.2037 48.0081 21.2125L50.8266 23.7794C53.0186 25.7756 53.0186 29.2242 50.8266 31.2204L48.0081 33.7873C46.9003 34.796 46.2997 36.246 46.3696 37.7428L46.5478 41.5508C46.6862 44.512 44.2473 46.9508 41.2862 46.8124L37.4781 46.6343C35.9813 46.5643 34.5313 47.1649 33.5226 48.2727L30.9558 51.0912C28.9595 53.2832 25.511 53.2832 23.5148 51.0912L20.9479 48.2727C19.9391 47.1649 18.4891 46.5643 16.9925 46.6343L13.1844 46.8124C10.2231 46.9508 7.78444 44.512 7.92285 41.5508L8.10081 37.7428C8.17076 36.246 7.57017 34.796 6.46243 33.7873L3.64386 31.2204C1.45205 29.2242 1.45205 25.7756 3.64386 23.7794L6.46243 21.2125C7.57017 20.2037 8.17076 18.7538 8.10081 17.2571L7.92285 13.449C7.78444 10.4877 10.2231 8.04909 13.1844 8.1875L16.9925 8.36546C18.4891 8.43541 19.9391 7.83482 20.9479 6.72708L23.5148 3.90851Z" stroke="url(#paint0_linear_70_472)" stroke-width="3"/>
<defs>
<linearGradient id="paint0_linear_70_472" x1="27.2353" y1="2.26465" x2="27.2353" y2="52.7352" gradientUnits="userSpaceOnUse">
<stop stop-color="#B36ABE"/>
<stop offset="1" stop-color="#8F00FF"/>
</linearGradient>
</defs>
</svg>
